<?xml version="1.0" encoding="UTF-8"?>
<svg width="20px" height="20px" viewBox="0 0 20 20" version="1.1" xmlns="http://www.w3.org/2000/svg" xmlns:xlink="http://www.w3.org/1999/xlink">
    <!-- Generator: Sketch 55.2 (78181) - https://sketchapp.com -->
    <title>add_u</title>
    <desc>Created with Sketch.</desc>
    <g id="Dexter-Version-2" stroke="none" stroke-width="1" fill="none" fill-rule="evenodd">
        <g id="add_u">
            <circle id="Oval" fill="#E5E7ED" cx="10" cy="10" r="10"></circle>
            <path d="M10.8333333,9.16666667 L14.1666667,9.16666667 C14.626904,9.16666667 15,9.53976271 15,10 C15,10.4602373 14.626904,10.8333333 14.1666667,10.8333333 L10.8333333,10.8333333 L10.8333333,14.1666667 C10.8333333,14.626904 10.4602373,15 10,15 C9.53976271,15 9.16666667,14.626904 9.16666667,14.1666667 L9.16666667,10.8333333 L5.83333333,10.8333333 C5.37309604,10.8333333 5,10.4602373 5,10 C5,9.53976271 5.37309604,9.16666667 5.83333333,9.16666667 L9.16666667,9.16666667 L9.16666667,5.83333333 C9.16666667,5.37309604 9.53976271,5 10,5 C10.4602373,5 10.8333333,5.37309604 10.8333333,5.83333333 L10.8333333,9.16666667 Z" id="Combined-Shape" fill="#ABADBA"></path>
        </g>
    </g>
</svg>