<?xml version="1.0" encoding="UTF-8"?>
<svg width="16px" height="14px" viewBox="0 0 16 14" version="1.1" xmlns="http://www.w3.org/2000/svg" xmlns:xlink="http://www.w3.org/1999/xlink">
    <!-- Generator: Sketch 55.2 (78181) - https://sketchapp.com -->
    <title>Shape</title>
    <desc>Created with Sketch.</desc>
    <defs>
        <linearGradient x1="100%" y1="88.2819004%" x2="0%" y2="11.7180996%" id="linearGradient-1">
            <stop stop-color="#04BEFE" stop-opacity="0.997104458" offset="0%"></stop>
            <stop stop-color="#4481EB" offset="100%"></stop>
        </linearGradient>
    </defs>
    <g id="Dexter-Version-2" stroke="none" stroke-width="1" fill="none" fill-rule="evenodd">
        <g id="Episode-Copy-7" transform="translate(-439.000000, -272.000000)" fill="url(#linearGradient-1)" fill-rule="nonzero">
            <g id="Group-3" transform="translate(28.000000, 20.000000)">
                <g id="Group-10" transform="translate(299.000000, 82.000000)">
                    <g id="Group-11" transform="translate(97.000000, 159.000000)">
                        <path d="M18.5674714,11.3659034 C18.5653124,11.1670122 18.7248634,11.0036662 18.9247158,11.0000372 C19.0227562,10.998737 19.117221,11.0367664 19.1866868,11.1056257 C19.2561527,11.174485 19.2947332,11.2683392 19.2936788,11.3659034 L19.2936788,12.5267269 L22.6370735,12.5267269 L22.6370735,11.3659034 C22.6349124,11.1671473 22.7942501,11.0038576 22.9939633,11.0000372 C23.0920647,10.9986409 23.1866218,11.0366278 23.2561651,11.1054978 C23.3257085,11.1743677 23.3643373,11.2682771 23.3632808,11.3659034 L23.3632808,12.5267269 L26.7052554,12.5267269 L26.7052554,11.3659034 C26.7031014,11.1666051 26.8632947,11.0030893 27.0635656,11.0000372 C27.161606,10.998737 27.2560707,11.0367664 27.3255366,11.1056257 C27.3950024,11.174485 27.4335829,11.2683392 27.4325286,11.3659034 L27.4325286,12.5267269 L28.6551845,12.5267269 C29.9475575,12.5267269 31,13.5725909 31,14.8586268 L31,22.6671608 C31,23.9531829 29.9475575,25.0001189 28.6551845,25.0001189 L17.3433951,25.0001189 C16.0510214,25.0001189 15,23.9531829 15,22.6671608 L15,14.8586268 C15,13.5725909 16.0510214,12.5267269 17.3433951,12.5267269 L18.5674714,12.5267269 L18.5674714,11.3659034 Z M18.636364,16.1088957 C18.4675897,16.1088957 18.3057279,16.1756121 18.1863865,16.2943682 C18.0670451,16.4131242 18.0000001,16.574192 18.0000001,16.7421384 C18.0000001,16.9100847 18.0670451,17.0711525 18.1863865,17.1899086 C18.3057279,17.3086647 18.4675897,17.3753811 18.636364,17.3753811 C18.8051382,17.3753811 18.9669998,17.3086644 19.0863411,17.1899084 C19.2056823,17.0711523 19.2727272,16.9100846 19.2727272,16.7421384 C19.2727272,16.5741921 19.2056823,16.4131245 19.0863411,16.2943684 C18.9669998,16.1756124 18.8051382,16.1088957 18.636364,16.1088957 Z M21.5454545,16.1088957 C21.3766802,16.1088957 21.2148184,16.1756121 21.095477,16.2943682 C20.9761356,16.4131242 20.9090906,16.574192 20.9090906,16.7421384 C20.9090906,16.9100847 20.9761356,17.0711525 21.095477,17.1899086 C21.2148184,17.3086647 21.3766802,17.3753811 21.5454545,17.3753811 C21.7142288,17.3753811 21.8760906,17.3086647 21.995432,17.1899086 C22.1147734,17.0711525 22.1818184,16.9100847 22.1818184,16.7421384 C22.1818184,16.574192 22.1147734,16.4131242 21.995432,16.2943682 C21.8760906,16.1756121 21.7142288,16.1088957 21.5454545,16.1088957 Z M24.4545452,16.1088957 C24.285771,16.1088957 24.1239094,16.1756124 24.0045682,16.2943684 C23.8852269,16.4131245 23.8181821,16.5741921 23.8181821,16.7421384 C23.8181821,16.9100846 23.8852269,17.0711523 24.0045682,17.1899084 C24.1239094,17.3086644 24.285771,17.3753811 24.4545452,17.3753811 C24.6233196,17.3753811 24.7851814,17.3086647 24.9045228,17.1899086 C25.0238642,17.0711525 25.0909091,16.9100847 25.0909091,16.7421384 C25.0909091,16.574192 25.0238642,16.4131242 24.9045228,16.2943682 C24.7851814,16.1756121 24.6233196,16.1088957 24.4545452,16.1088957 Z M27.363636,16.1088957 C27.1948618,16.1088957 27.0330002,16.1756124 26.9136589,16.2943684 C26.7943177,16.4131245 26.7272728,16.5741921 26.7272728,16.7421384 C26.7272728,16.9100846 26.7943177,17.0711523 26.9136589,17.1899084 C27.0330002,17.3086644 27.1948618,17.3753811 27.363636,17.3753811 C27.5324103,17.3753811 27.6942721,17.3086647 27.8136135,17.1899086 C27.9329549,17.0711525 27.9999999,16.9100847 27.9999999,16.7421384 C27.9999999,16.574192 27.9329549,16.4131242 27.8136135,16.2943682 C27.6942721,16.1756121 27.5324103,16.1088957 27.363636,16.1088957 Z M18.636364,18.6418596 C18.4675897,18.6418596 18.3057279,18.708576 18.1863865,18.827332 C18.0670451,18.9460881 18.0000001,19.1071559 18.0000001,19.2751022 C18.0000001,19.4430486 18.0670451,19.6041164 18.1863865,19.7228725 C18.3057279,19.8416285 18.4675897,19.9083449 18.636364,19.9083449 C18.8051382,19.9083449 18.9669998,19.8416283 19.0863411,19.7228722 C19.2056823,19.6041162 19.2727272,19.4430485 19.2727272,19.2751022 C19.2727272,19.107156 19.2056823,18.9460883 19.0863411,18.8273323 C18.9669998,18.7085762 18.8051382,18.6418596 18.636364,18.6418596 Z M21.5454545,18.6418596 C21.3766802,18.6418596 21.2148184,18.708576 21.095477,18.827332 C20.9761356,18.9460881 20.9090906,19.1071559 20.9090906,19.2751022 C20.9090906,19.4430486 20.9761356,19.6041164 21.095477,19.7228725 C21.2148184,19.8416285 21.3766802,19.9083449 21.5454545,19.9083449 C21.7142288,19.9083449 21.8760906,19.8416285 21.995432,19.7228725 C22.1147734,19.6041164 22.1818184,19.4430486 22.1818184,19.2751022 C22.1818184,19.1071559 22.1147734,18.9460881 21.995432,18.827332 C21.8760906,18.708576 21.7142288,18.6418596 21.5454545,18.6418596 Z M24.4545452,18.6418596 C24.285771,18.6418596 24.1239094,18.7085762 24.0045682,18.8273323 C23.8852269,18.9460883 23.8181821,19.107156 23.8181821,19.2751022 C23.8181821,19.4430485 23.8852269,19.6041162 24.0045682,19.7228722 C24.1239094,19.8416283 24.285771,19.9083449 24.4545452,19.9083449 C24.6233196,19.9083449 24.7851814,19.8416285 24.9045228,19.7228725 C25.0238642,19.6041164 25.0909091,19.4430486 25.0909091,19.2751022 C25.0909091,19.1071559 25.0238642,18.9460881 24.9045228,18.827332 C24.7851814,18.708576 24.6233196,18.6418596 24.4545452,18.6418596 Z M27.363636,18.6418596 C27.1948618,18.6418596 27.0330002,18.7085762 26.9136589,18.8273323 C26.7943177,18.9460883 26.7272728,19.107156 26.7272728,19.2751022 C26.7272728,19.4430485 26.7943177,19.6041162 26.9136589,19.7228722 C27.0330002,19.8416283 27.1948618,19.9083449 27.363636,19.9083449 C27.5324103,19.9083449 27.6942721,19.8416285 27.8136135,19.7228725 C27.9329549,19.6041164 27.9999999,19.4430486 27.9999999,19.2751022 C27.9999999,19.1071559 27.9329549,18.9460881 27.8136135,18.827332 C27.6942721,18.708576 27.5324103,18.6418596 27.363636,18.6418596 Z M18.636364,21.1748303 C18.4675897,21.1748303 18.3057279,21.2415467 18.1863865,21.3603028 C18.0670451,21.4790588 18.0000001,21.6401266 18.0000001,21.808073 C18.0000001,21.9760193 18.0670451,22.1370871 18.1863865,22.2558432 C18.3057279,22.3745993 18.4675897,22.4413157 18.636364,22.4413157 C18.8051382,22.4413157 18.9669998,22.374599 19.0863411,22.255843 C19.2056823,22.1370869 19.2727272,21.9760192 19.2727272,21.808073 C19.2727272,21.6401267 19.2056823,21.479059 19.0863411,21.360303 C18.9669998,21.2415469 18.8051382,21.1748303 18.636364,21.1748303 Z M21.5454545,21.1748303 C21.3766802,21.1748303 21.2148184,21.2415467 21.095477,21.3603028 C20.9761356,21.4790588 20.9090906,21.6401266 20.9090906,21.808073 C20.9090906,21.9760193 20.9761356,22.1370871 21.095477,22.2558432 C21.2148184,22.3745993 21.3766802,22.4413157 21.5454545,22.4413157 C21.7142288,22.4413157 21.8760906,22.3745993 21.995432,22.2558432 C22.1147734,22.1370871 22.1818184,21.9760193 22.1818184,21.808073 C22.1818184,21.6401266 22.1147734,21.4790588 21.995432,21.3603028 C21.8760906,21.2415467 21.7142288,21.1748303 21.5454545,21.1748303 Z M24.4545452,21.1748303 C24.285771,21.1748303 24.1239094,21.2415469 24.0045682,21.360303 C23.8852269,21.479059 23.8181821,21.6401267 23.8181821,21.808073 C23.8181821,21.9760192 23.8852269,22.1370869 24.0045682,22.255843 C24.1239094,22.374599 24.285771,22.4413157 24.4545452,22.4413157 C24.6233196,22.4413157 24.7851814,22.3745993 24.9045228,22.2558432 C25.0238642,22.1370871 25.0909091,21.9760193 25.0909091,21.808073 C25.0909091,21.6401266 25.0238642,21.4790588 24.9045228,21.3603028 C24.7851814,21.2415467 24.6233196,21.1748303 24.4545452,21.1748303 Z" id="Shape"></path>
                    </g>
                </g>
            </g>
        </g>
    </g>
</svg>