<?xml version="1.0" encoding="UTF-8"?>
<svg width="16px" height="14px" viewBox="0 0 16 14" version="1.1" xmlns="http://www.w3.org/2000/svg" xmlns:xlink="http://www.w3.org/1999/xlink">
    <!-- Generator: Sketch 55.2 (78181) - https://sketchapp.com -->
    <title>Shape</title>
    <desc>Created with Sketch.</desc>
    <g id="Dexter-Version-2" stroke="none" stroke-width="1" fill="none" fill-rule="evenodd" fill-opacity="0.1">
        <g id="Episode-Copy-5" transform="translate(-535.000000, -365.000000)" fill="#000022" fill-rule="nonzero">
            <path d="M538.567471,365.365827 C538.565312,365.166936 538.724863,365.00359 538.924716,364.999961 C539.022756,364.998661 539.117221,365.03669 539.186687,365.105549 C539.256153,365.174409 539.294733,365.268263 539.293679,365.365827 L539.293679,366.52665 L542.637073,366.52665 L542.637073,365.365827 C542.634912,365.167071 542.79425,365.003781 542.993963,364.999961 C543.092065,364.998564 543.186622,365.036551 543.256165,365.105421 C543.325708,365.174291 543.364337,365.268201 543.363281,365.365827 L543.363281,366.52665 L546.705255,366.52665 L546.705255,365.365827 C546.703101,365.166529 546.863295,365.003013 547.063566,364.999961 C547.161606,364.998661 547.256071,365.03669 547.325537,365.105549 C547.395002,365.174409 547.433583,365.268263 547.432529,365.365827 L547.432529,366.52665 L548.655184,366.52665 C549.947558,366.52665 551,367.572515 551,368.85855 L551,376.667084 C551,377.953106 549.947558,379.000042 548.655184,379.000042 L537.343395,379.000042 C536.051021,379.000042 535,377.953106 535,376.667084 L535,368.85855 C535,367.572515 536.051021,366.52665 537.343395,366.52665 L538.567471,366.52665 L538.567471,365.365827 Z M538.636364,370.108819 C538.46759,370.108819 538.305728,370.175536 538.186386,370.294292 C538.067045,370.413048 538,370.574116 538,370.742062 C538,370.910008 538.067045,371.071076 538.186386,371.189832 C538.305728,371.308588 538.46759,371.375305 538.636364,371.375305 C538.805138,371.375305 538.967,371.308588 539.086341,371.189832 C539.205682,371.071076 539.272727,370.910008 539.272727,370.742062 C539.272727,370.574116 539.205682,370.413048 539.086341,370.294292 C538.967,370.175536 538.805138,370.108819 538.636364,370.108819 Z M541.545454,370.108819 C541.37668,370.108819 541.214818,370.175536 541.095477,370.294292 C540.976136,370.413048 540.909091,370.574116 540.909091,370.742062 C540.909091,370.910008 540.976136,371.071076 541.095477,371.189832 C541.214818,371.308588 541.37668,371.375305 541.545454,371.375305 C541.714229,371.375305 541.876091,371.308588 541.995432,371.189832 C542.114773,371.071076 542.181818,370.910008 542.181818,370.742062 C542.181818,370.574116 542.114773,370.413048 541.995432,370.294292 C541.876091,370.175536 541.714229,370.108819 541.545454,370.108819 Z M544.454545,370.108819 C544.285771,370.108819 544.123909,370.175536 544.004568,370.294292 C543.885227,370.413048 543.818182,370.574116 543.818182,370.742062 C543.818182,370.910008 543.885227,371.071076 544.004568,371.189832 C544.123909,371.308588 544.285771,371.375305 544.454545,371.375305 C544.62332,371.375305 544.785181,371.308588 544.904523,371.189832 C545.023864,371.071076 545.090909,370.910008 545.090909,370.742062 C545.090909,370.574116 545.023864,370.413048 544.904523,370.294292 C544.785181,370.175536 544.62332,370.108819 544.454545,370.108819 Z M547.363636,370.108819 C547.194862,370.108819 547.033,370.175536 546.913659,370.294292 C546.794318,370.413048 546.727273,370.574116 546.727273,370.742062 C546.727273,370.910008 546.794318,371.071076 546.913659,371.189832 C547.033,371.308588 547.194862,371.375305 547.363636,371.375305 C547.53241,371.375305 547.694272,371.308588 547.813614,371.189832 C547.932955,371.071076 548,370.910008 548,370.742062 C548,370.574116 547.932955,370.413048 547.813614,370.294292 C547.694272,370.175536 547.53241,370.108819 547.363636,370.108819 Z M538.636364,372.641783 C538.46759,372.641783 538.305728,372.7085 538.186386,372.827256 C538.067045,372.946012 538,373.107079 538,373.275026 C538,373.442972 538.067045,373.60404 538.186386,373.722796 C538.305728,373.841552 538.46759,373.908268 538.636364,373.908268 C538.805138,373.908268 538.967,373.841552 539.086341,373.722796 C539.205682,373.60404 539.272727,373.442972 539.272727,373.275026 C539.272727,373.10708 539.205682,372.946012 539.086341,372.827256 C538.967,372.7085 538.805138,372.641783 538.636364,372.641783 Z M541.545454,372.641783 C541.37668,372.641783 541.214818,372.7085 541.095477,372.827256 C540.976136,372.946012 540.909091,373.107079 540.909091,373.275026 C540.909091,373.442972 540.976136,373.60404 541.095477,373.722796 C541.214818,373.841552 541.37668,373.908268 541.545454,373.908268 C541.714229,373.908268 541.876091,373.841552 541.995432,373.722796 C542.114773,373.60404 542.181818,373.442972 542.181818,373.275026 C542.181818,373.107079 542.114773,372.946012 541.995432,372.827256 C541.876091,372.7085 541.714229,372.641783 541.545454,372.641783 Z M544.454545,372.641783 C544.285771,372.641783 544.123909,372.7085 544.004568,372.827256 C543.885227,372.946012 543.818182,373.10708 543.818182,373.275026 C543.818182,373.442972 543.885227,373.60404 544.004568,373.722796 C544.123909,373.841552 544.285771,373.908268 544.454545,373.908268 C544.62332,373.908268 544.785181,373.841552 544.904523,373.722796 C545.023864,373.60404 545.090909,373.442972 545.090909,373.275026 C545.090909,373.107079 545.023864,372.946012 544.904523,372.827256 C544.785181,372.7085 544.62332,372.641783 544.454545,372.641783 Z M547.363636,372.641783 C547.194862,372.641783 547.033,372.7085 546.913659,372.827256 C546.794318,372.946012 546.727273,373.10708 546.727273,373.275026 C546.727273,373.442972 546.794318,373.60404 546.913659,373.722796 C547.033,373.841552 547.194862,373.908268 547.363636,373.908268 C547.53241,373.908268 547.694272,373.841552 547.813614,373.722796 C547.932955,373.60404 548,373.442972 548,373.275026 C548,373.107079 547.932955,372.946012 547.813614,372.827256 C547.694272,372.7085 547.53241,372.641783 547.363636,372.641783 Z M538.636364,375.174754 C538.46759,375.174754 538.305728,375.24147 538.186386,375.360226 C538.067045,375.478982 538,375.64005 538,375.807997 C538,375.975943 538.067045,376.137011 538.186386,376.255767 C538.305728,376.374523 538.46759,376.441239 538.636364,376.441239 C538.805138,376.441239 538.967,376.374523 539.086341,376.255767 C539.205682,376.13701 539.272727,375.975943 539.272727,375.807997 C539.272727,375.64005 539.205682,375.478983 539.086341,375.360227 C538.967,375.241471 538.805138,375.174754 538.636364,375.174754 Z M541.545454,375.174754 C541.37668,375.174754 541.214818,375.24147 541.095477,375.360226 C540.976136,375.478982 540.909091,375.64005 540.909091,375.807997 C540.909091,375.975943 540.976136,376.137011 541.095477,376.255767 C541.214818,376.374523 541.37668,376.441239 541.545454,376.441239 C541.714229,376.441239 541.876091,376.374523 541.995432,376.255767 C542.114773,376.137011 542.181818,375.975943 542.181818,375.807997 C542.181818,375.64005 542.114773,375.478982 541.995432,375.360226 C541.876091,375.24147 541.714229,375.174754 541.545454,375.174754 Z M544.454545,375.174754 C544.285771,375.174754 544.123909,375.241471 544.004568,375.360227 C543.885227,375.478983 543.818182,375.64005 543.818182,375.807997 C543.818182,375.975943 543.885227,376.13701 544.004568,376.255767 C544.123909,376.374523 544.285771,376.441239 544.454545,376.441239 C544.62332,376.441239 544.785181,376.374523 544.904523,376.255767 C545.023864,376.137011 545.090909,375.975943 545.090909,375.807997 C545.090909,375.64005 545.023864,375.478982 544.904523,375.360226 C544.785181,375.24147 544.62332,375.174754 544.454545,375.174754 Z" id="Shape"></path>
        </g>
    </g>
</svg>