<?xml version="1.0" encoding="UTF-8"?>
<svg width="28px" height="28px" viewBox="0 0 28 28" version="1.1" xmlns="http://www.w3.org/2000/svg" xmlns:xlink="http://www.w3.org/1999/xlink">
    <!-- Generator: Sketch 55.2 (78181) - https://sketchapp.com -->
    <title>home_inactive</title>
    <desc>Created with Sketch.</desc>
    <g id="Dexter-Version-2" stroke="none" stroke-width="1" fill="none" fill-rule="evenodd">
        <g id="home_inactive" fill="#000022" fill-rule="nonzero">
            <g id="Group-19">
                <path d="M14,3.35122287 L25.4545455,13.6796265 L25.4545455,25.4361148 C25.4545455,26.3276335 25.3617198,26.6509198 25.1874128,26.9768457 C25.0131057,27.3027716 24.7573171,27.5585602 24.4313912,27.7328673 C24.1054652,27.9071744 23.782179,28 22.8906603,28 L19.1093397,28 C18.217821,28 17.8945348,27.9071744 17.5686088,27.7328673 C17.2426829,27.5585602 16.9868943,27.3027716 16.8125872,26.9768457 C16.6382802,26.6509198 16.5454545,26.3276335 16.5454545,25.4361148 L16.5454545,22.5454545 C16.5454545,21.1396388 15.4058157,20 14,20 C12.5941843,20 11.4545455,21.1396388 11.4545455,22.5454545 L11.4545455,25.4361148 C11.4545455,26.3276335 11.3617198,26.6509198 11.1874128,26.9768457 C11.0131057,27.3027716 10.7573171,27.5585602 10.4313912,27.7328673 C10.1054652,27.9071744 9.78217899,28 8.89066025,28 L5.10933975,28 C4.21782101,28 3.89453477,27.9071744 3.56860884,27.7328673 C3.24268292,27.5585602 2.98689434,27.3027716 2.81258725,26.9768457 C2.63828016,26.6509198 2.54545455,26.3276335 2.54545455,25.4361148 L2.54545455,13.680191 L14,3.35122287 Z" id="Rectangle-11" fill-opacity="0.1"></path>
                <path d="M22.9090909,7.45183318 L27.5507602,11.6366169 C27.8427114,11.8998309 28.0002216,12.2505987 28.0002216,12.6141574 C28.0002216,13.030723 27.8503259,13.3566377 27.5505343,13.5919014 C26.88163,14.1168291 25.9625054,14.135999 25.3577381,13.5916899 L14,3.35122287 L2.64202603,13.5919014 C2.03749344,14.135999 1.05399712,14.135999 0.449012997,13.5914943 C-0.149708604,13.0507829 -0.149708604,12.1775319 0.44923866,11.6366169 L12.9037187,0.408047754 C13.5082513,-0.136049824 14.4917476,-0.136049824 15.096506,0.408251217 L17.8181818,2.86202891 L17.8181818,2.61527593 C17.8181818,2.16951656 17.8645946,2.00787344 17.9517482,1.84491048 C18.0389017,1.68194752 18.166796,1.55405323 18.329759,1.46689969 C18.4927219,1.37974614 18.654365,1.33333333 19.1001244,1.33333333 L21.6271483,1.33333333 C22.0729077,1.33333333 22.2345508,1.37974614 22.3975138,1.46689969 C22.5604767,1.55405323 22.688371,1.68194752 22.7755246,1.84491048 C22.8626781,2.00787344 22.9090909,2.16951656 22.9090909,2.61527593 L22.9090909,7.45183318 Z" id="Combined-Shape" fill-opacity="0.25"></path>
            </g>
        </g>
    </g>
</svg>