<?xml version="1.0" encoding="UTF-8"?>
<svg width="20px" height="20px" viewBox="0 0 20 20" version="1.1" xmlns="http://www.w3.org/2000/svg" xmlns:xlink="http://www.w3.org/1999/xlink">
    <!-- Generator: Sketch 55.2 (78181) - https://sketchapp.com -->
    <title>home_a</title>
    <desc>Created with Sketch.</desc>
    <g id="Dexter-Version-2" stroke="none" stroke-width="1" fill="none" fill-rule="evenodd">
        <g id="home_a" fill-rule="nonzero">
            <g id="Group-19">
                <path d="M1.81818182,9.52380952 L10,1.9047619 L18.1818182,9.52380952 L18.1818182,17.4361148 C18.1818182,18.3276335 18.0889926,18.6509198 17.9146855,18.9768457 C17.7403784,19.3027716 17.4845898,19.5585602 17.1586639,19.7328673 C16.832738,19.9071744 16.5094517,20 15.617933,20 L14.2721707,20 C13.5125275,20 13.167262,19.9071744 12.8413361,19.7328673 C12.5154102,19.5585602 12.2596216,19.3027716 12.0853145,18.9768457 C11.9110074,18.6509198 11.8181818,18.3056543 11.8181818,17.5460111 L11.8181818,16.1038961 C11.8181818,15.099742 11.0041541,14.2857143 10,14.2857143 C8.99584591,14.2857143 8.18181818,15.099742 8.18181818,16.1038961 L8.18181818,17.5460111 C8.18181818,18.3056543 8.08899257,18.6509198 7.91468548,18.9768457 C7.74037839,19.3027716 7.48458981,19.5585602 7.15866389,19.7328673 C6.83273796,19.9071744 6.48747245,20 5.72782932,20 L4.38206702,20 C3.49054828,20 3.16726204,19.9071744 2.84133611,19.7328673 C2.51541019,19.5585602 2.25962161,19.3027716 2.08531452,18.9768457 C1.91100743,18.6509198 1.81818182,18.3276335 1.81818182,17.4361148 L1.81818182,9.52380952 Z" id="Rectangle-11" fill="#04BEFE"></path>
                <path d="M16.3225033,5.28565371 L19.6791144,8.3118692 C19.887651,8.49987925 20.0001583,8.75042763 20.0001583,9.01011243 C20.0001583,9.3076593 19.8930899,9.54045549 19.6789531,9.70850099 C19.2011643,10.0834494 18.5446467,10.0971421 18.1126701,9.70834996 L10,2.39373062 L1.88716145,9.70850099 C1.45535245,10.0971421 0.752855085,10.0971421 0.320723569,9.70821021 C-0.106934717,9.32198781 -0.106934717,8.69823705 0.320884757,8.3118692 L9.2169419,0.291462682 C9.6487509,-0.0971784455 10.3512483,-0.0971784455 10.7832186,0.291608012 L12.7305651,2.04727462 C12.742561,1.73866405 12.7871295,1.6017831 12.8608391,1.4639581 C12.9479926,1.30099514 13.0758869,1.17310085 13.2388499,1.0859473 C13.4018128,0.998793758 13.563456,0.952380952 14.0092153,0.952380952 L15.0816938,0.952380952 C15.5274531,0.952380952 15.6890963,0.998793758 15.8520592,1.0859473 C16.0150222,1.17310085 16.1429165,1.30099514 16.23007,1.4639581 C16.3172236,1.62692106 16.3636364,1.78856418 16.3636364,2.23432355 L16.3636364,5.00087582 C16.3636364,5.09981539 16.3492677,5.19539897 16.3225033,5.28565371 Z" id="Combined-Shape" fill="#4481EB"></path>
            </g>
        </g>
    </g>
</svg>