<?xml version="1.0" encoding="UTF-8"?>
<svg width="16px" height="16px" viewBox="0 0 16 16" version="1.1" xmlns="http://www.w3.org/2000/svg" xmlns:xlink="http://www.w3.org/1999/xlink">
    <!-- Generator: Sketch 55.2 (78181) - https://sketchapp.com -->
    <title>Combined Shape</title>
    <desc>Created with Sketch.</desc>
    <g id="Dexter-Version-2" stroke="none" stroke-width="1" fill="none" fill-rule="evenodd" opacity="0.25">
        <g id="Episode-Copy-5" transform="translate(-986.000000, -164.000000)" fill="#000022" fill-rule="nonzero">
            <g id="Group-3" transform="translate(112.000000, 20.000000)">
                <g id="Group-14" transform="translate(487.000000, 139.000000)">
                    <g id="Group-6" transform="translate(341.000000, 5.000000)">
                        <path d="M46,14.8538596 L46,1.14614038 C46,0.513101458 46.5293516,-4.26325641e-13 47.1823707,-4.26325641e-13 L60.8176293,-4.26325641e-13 C61.4706268,-4.26325641e-13 62,0.513101458 62,1.14614038 L62,14.8538596 C62,15.4866847 61.4706268,16 60.8176293,16 L47.1823707,16 C46.5293516,16 46,15.4866847 46,14.8538596 Z M52.1873084,2.60634161 C52.1873084,2.60634161 52.2190858,9.15330242 52.1873084,9.83123772 L54.6040082,9.83123772 L54.6040082,8.78344179 L54.5878721,8.78344179 C54.9058617,9.27666056 55.4782001,10.000775 56.7819146,10.000775 C58.3718844,10.000775 59.5641304,8.96815831 59.5641304,6.74899451 L59.5641304,2.60634161 L57.1476888,2.60634161 L57.1476888,6.47149214 C57.1476888,7.44275044 56.7978786,8.10529269 55.9234071,8.10529269 C55.2558009,8.10529269 54.8581633,7.65846684 54.6834626,7.22703403 C54.6196495,7.07267601 54.6039437,6.85695961 54.6039437,6.64102941 L54.6039437,2.60634161 L52.1873084,2.60634161 Z M50.8500952,2.60634161 L48.4334384,2.60634161 L48.4334384,9.83123772 L50.8500952,9.83123772 L50.8500952,2.60634161 Z M49.641756,10.8176753 L49.641713,10.8176753 L49.6260072,10.8176753 C48.8150045,10.8176753 48.2905797,11.3724662 48.2905797,12.0657946 C48.2905797,12.7747298 48.8310761,13.3141277 49.6577416,13.3141277 C50.4844932,13.3141277 50.9933196,12.7747298 51.0090255,12.0657946 C51.0090255,11.3724662 50.4844932,10.8176753 49.641756,10.8176753 Z" id="Combined-Shape" transform="translate(54.000000, 8.000000) scale(-1, 1) rotate(-180.000000) translate(-54.000000, -8.000000) "></path>
                    </g>
                </g>
            </g>
        </g>
    </g>
</svg>