<?xml version="1.0" encoding="UTF-8"?>
<svg width="20px" height="20px" viewBox="0 0 20 20" version="1.1" xmlns="http://www.w3.org/2000/svg" xmlns:xlink="http://www.w3.org/1999/xlink">
    <!-- Generator: Sketch 55.2 (78181) - https://sketchapp.com -->
    <title>Combined Shape</title>
    <desc>Created with Sketch.</desc>
    <g id="Dexter-Version-2" stroke="none" stroke-width="1" fill="none" fill-rule="evenodd" opacity="0.25">
        <g id="Episode-Copy-13" transform="translate(-956.000000, -80.000000)" fill="#000022" fill-rule="nonzero">
            <g id="Group-7" transform="translate(343.000000, 64.000000)">
                <g id="Group-3">
                    <g id="Group-14" transform="translate(83.000000, 1.000000)">
                        <g id="Group-6" transform="translate(402.000000, 15.000000)">
                            <path d="M128,18.5673245 L128,1.43267548 C128,0.641376822 128.66169,-4.26325641e-13 129.477963,-4.26325641e-13 L146.522037,-4.26325641e-13 C147.338284,-4.26325641e-13 148,0.641376822 148,1.43267548 L148,18.5673245 C148,19.3583559 147.338284,20 146.522037,20 L129.477963,20 C128.66169,20 128,19.3583559 128,18.5673245 Z M135.734135,3.25792702 C135.734135,3.25792702 135.773857,11.441628 135.734135,12.2890472 L138.75501,12.2890472 L138.75501,10.9793022 L138.73484,10.9793022 C139.132327,11.5958257 139.84775,12.5009687 141.477393,12.5009687 C143.464855,12.5009687 144.955163,11.2101979 144.955163,8.43624314 L144.955163,3.25792702 L141.934611,3.25792702 L141.934611,8.08936517 C141.934611,9.30343805 141.497348,10.1316159 140.404259,10.1316159 C139.569751,10.1316159 139.072704,9.57308355 138.854328,9.03379254 C138.774562,8.84084501 138.75493,8.57119951 138.75493,8.30128676 L138.75493,3.25792702 L135.734135,3.25792702 Z M134.062619,3.25792702 L131.041798,3.25792702 L131.041798,12.2890472 L134.062619,12.2890472 L134.062619,3.25792702 Z M132.552195,13.5220941 L132.552141,13.5220941 L132.532509,13.5220941 C131.518756,13.5220941 130.863225,14.2155828 130.863225,15.0822432 C130.863225,15.9684122 131.538845,16.6426596 132.572177,16.6426596 C133.605616,16.6426596 134.24165,15.9684122 134.261282,15.0822432 C134.261282,14.2155828 133.605616,13.5220941 132.552195,13.5220941 Z" id="Combined-Shape" transform="translate(138.000000, 10.000000) scale(-1, 1) rotate(-180.000000) translate(-138.000000, -10.000000) "></path>
                        </g>
                    </g>
                </g>
            </g>
        </g>
    </g>
</svg>