<?xml version="1.0" encoding="UTF-8"?>
<svg width="98px" height="49px" viewBox="0 0 98 49" version="1.1" xmlns="http://www.w3.org/2000/svg" xmlns:xlink="http://www.w3.org/1999/xlink">
    <!-- Generator: Sketch 55.2 (78181) - https://sketchapp.com -->
    <title>logo</title>
    <desc>Created with Sketch.</desc>
    <defs>
        <linearGradient x1="37.5355826%" y1="85.1988458%" x2="84.4483%" y2="85.1988458%" id="linearGradient-1">
            <stop stop-color="#000022" offset="0%"></stop>
            <stop stop-color="#000022" stop-opacity="0" offset="100%"></stop>
        </linearGradient>
        <linearGradient x1="37.5355826%" y1="85.1988458%" x2="84.4483%" y2="85.1988458%" id="linearGradient-2">
            <stop stop-color="#000022" offset="0%"></stop>
            <stop stop-color="#000022" stop-opacity="0" offset="100%"></stop>
        </linearGradient>
    </defs>
    <g id="Dexter-Version-2" stroke="none" stroke-width="1" fill="none" fill-rule="evenodd" opacity="0.595819382">
        <g id="logo" transform="translate(0.000000, -1.000000)">
            <path d="M65.5328874,36.7459611 C64.8531961,28.1443097 71.8619376,32.5233159 71.4472341,37.2633994 C69.7730026,56.3999523 53.3765666,50.1539149 53.3799629,41.7242104 C53.3799872,41.6639362 53.3751833,41.5503582 53.3655513,41.3834765 L53.3655513,1.3740458 L59.5652459,1.3740458 C59.5639918,26.5048037 59.5639918,39.7865263 59.5652459,41.2192133 C59.6040327,44.4048887 66.2125787,45.3476125 65.5328874,36.7459611 Z" id="Path" fill="url(#linearGradient-1)" transform="translate(62.415252, 25.607970) rotate(-5.000000) translate(-62.415252, -25.607970) "></path>
            <path d="M33.3398473,43.7199281 C38.6161832,43.7199281 43.2329771,39.7626762 43.2329771,32.375806 C43.2329771,25.05489 38.6161832,21.0976381 33.3398473,21.0976381 C28.0635115,21.0976381 23.4467176,25.05489 23.4467176,32.375806 C23.4467176,39.7626762 28.0635115,43.7199281 33.3398473,43.7199281 Z M33.3398473,15.5574854 C42.8372519,15.5574854 49.5645802,22.746493 49.5645802,32.375806 C49.5645802,42.0710732 42.8372519,49.2600808 33.3398473,49.2600808 C23.8424427,49.2600808 17.1151145,42.0710732 17.1151145,32.375806 C17.1151145,22.746493 23.8424427,15.5574854 33.3398473,15.5574854 Z M80.9477863,43.7199281 C86.2241221,43.7199281 90.840916,39.7626762 90.840916,32.375806 C90.840916,25.05489 86.2241221,21.0976381 80.9477863,21.0976381 C75.6714504,21.0976381 71.0546565,25.05489 71.0546565,32.375806 C71.0546565,39.7626762 75.6714504,43.7199281 80.9477863,43.7199281 Z M80.9477863,15.5574854 C90.4451908,15.5574854 97.1725191,22.746493 97.1725191,32.375806 C97.1725191,42.0710732 90.4451908,49.2600808 80.9477863,49.2600808 C71.4503817,49.2600808 64.7230534,42.0710732 64.7230534,32.375806 C64.7230534,22.746493 71.4503817,15.5574854 80.9477863,15.5574854 Z" id="rolo" fill="#000022" fill-rule="nonzero"></path>
            <path d="M34.3407405,21.1306152 C29.1405136,21.1306152 19.3465518,21.0932156 18.4891603,21.0976381 C12.0958914,21.1306152 6.19969466,25.384661 6.19969466,32.375806 L6.19969466,48.2707678 L0,48.2707678 L0,16.5467984 L6.06778626,16.5467984 L6.06778626,22.086951 C8.37618321,17.2063404 13.6168347,15.634432 18.4891603,15.634432 C18.715589,15.634432 29.8614039,15.634432 34.3407405,15.634432 C35.1471987,15.634432 35.1471987,17.466493 34.3407405,21.1306152 Z" id="Path" fill="url(#linearGradient-2)"></path>
        </g>
    </g>
</svg>