<?xml version="1.0" encoding="UTF-8"?>
<svg width="268px" height="85px" viewBox="0 0 268 85" version="1.1" xmlns="http://www.w3.org/2000/svg" xmlns:xlink="http://www.w3.org/1999/xlink">
    <!-- Generator: Sketch 55.2 (78181) - https://sketchapp.com -->
    <title>logo</title>
    <desc>Created with Sketch.</desc>
    <defs>
        <linearGradient x1="37.5355826%" y1="85.1988458%" x2="84.4483%" y2="85.1988458%" id="linearGradient-1">
            <stop stop-color="#000022" offset="0%"></stop>
            <stop stop-color="#000022" stop-opacity="0" offset="100%"></stop>
        </linearGradient>
        <linearGradient x1="37.5355826%" y1="85.1988458%" x2="84.4483%" y2="85.1988458%" id="linearGradient-2">
            <stop stop-color="#000022" offset="0%"></stop>
            <stop stop-color="#000022" stop-opacity="0" offset="100%"></stop>
        </linearGradient>
    </defs>
    <g id="Dexter-Version-2" stroke="none" stroke-width="1" fill="none" fill-rule="evenodd">
        <g id="logo" transform="translate(-1.000000, -1.000000)">
            <g id="Group-24" opacity="0.497512091" transform="translate(2.000000, 0.000000)">
                <path d="M65.5328874,36.7459611 C64.8531961,28.1443097 71.8619376,32.5233159 71.4472341,37.2633994 C69.7730026,56.3999523 53.3765666,50.1539149 53.3799629,41.7242104 C53.3799872,41.6639362 53.3751833,41.5503582 53.3655513,41.3834765 L53.3655513,1.3740458 L59.5652459,1.3740458 C59.5639918,26.5048037 59.5639918,39.7865263 59.5652459,41.2192133 C59.6040327,44.4048887 66.2125787,45.3476125 65.5328874,36.7459611 Z" id="Path" fill="url(#linearGradient-1)" transform="translate(62.415252, 25.607970) rotate(-5.000000) translate(-62.415252, -25.607970) "></path>
                <path d="M33.3398473,43.7199281 C38.6161832,43.7199281 43.2329771,39.7626762 43.2329771,32.375806 C43.2329771,25.05489 38.6161832,21.0976381 33.3398473,21.0976381 C28.0635115,21.0976381 23.4467176,25.05489 23.4467176,32.375806 C23.4467176,39.7626762 28.0635115,43.7199281 33.3398473,43.7199281 Z M33.3398473,15.5574854 C42.8372519,15.5574854 49.5645802,22.746493 49.5645802,32.375806 C49.5645802,42.0710732 42.8372519,49.2600808 33.3398473,49.2600808 C23.8424427,49.2600808 17.1151145,42.0710732 17.1151145,32.375806 C17.1151145,22.746493 23.8424427,15.5574854 33.3398473,15.5574854 Z M80.9477863,43.7199281 C86.2241221,43.7199281 90.840916,39.7626762 90.840916,32.375806 C90.840916,25.05489 86.2241221,21.0976381 80.9477863,21.0976381 C75.6714504,21.0976381 71.0546565,25.05489 71.0546565,32.375806 C71.0546565,39.7626762 75.6714504,43.7199281 80.9477863,43.7199281 Z M80.9477863,15.5574854 C90.4451908,15.5574854 97.1725191,22.746493 97.1725191,32.375806 C97.1725191,42.0710732 90.4451908,49.2600808 80.9477863,49.2600808 C71.4503817,49.2600808 64.7230534,42.0710732 64.7230534,32.375806 C64.7230534,22.746493 71.4503817,15.5574854 80.9477863,15.5574854 Z" id="rolo" fill="#000022" fill-rule="nonzero"></path>
                <path d="M34.3407405,21.1306152 C29.1405136,21.1306152 19.3465518,21.0932156 18.4891603,21.0976381 C12.0958914,21.1306152 6.19969466,25.384661 6.19969466,32.375806 L6.19969466,48.2707678 L0,48.2707678 L0,16.5467984 L6.06778626,16.5467984 L6.06778626,22.086951 C8.37618321,17.2063404 13.6168347,15.634432 18.4891603,15.634432 C18.715589,15.634432 29.8614039,15.634432 34.3407405,15.634432 C35.1471987,15.634432 35.1471987,17.466493 34.3407405,21.1306152 Z" id="Path" fill="url(#linearGradient-2)"></path>
            </g>
            <path d="M1.968,85 L1.968,68.08 L4.44,68.08 L4.44,85 L1.968,85 Z M19.944,68.08 L22.272,68.08 L22.272,85 L20.376,85 L10.704,72.232 L10.704,85 L8.376,85 L8.376,68.08 L10.248,68.08 L19.944,80.872 L19.944,68.08 Z M30.24,85 L30.24,70.144 L24.528,70.144 L24.528,68.08 L38.472,68.08 L38.472,70.144 L32.736,70.144 L32.736,85 L30.24,85 Z M40.728,85 L40.728,68.08 L51.72,68.08 L51.72,70.072 L43.152,70.072 L43.152,75.4 L51.24,75.4 L51.24,77.416 L43.152,77.416 L43.152,83.008 L51.72,83.008 L51.72,85 L40.728,85 Z M54.768,85 L54.768,68.08 L57.24,68.08 L57.24,82.936 L65.448,82.936 L65.448,85 L54.768,85 Z M67.896,85 L67.896,68.08 L70.368,68.08 L70.368,82.936 L78.576,82.936 L78.576,85 L67.896,85 Z M81.024,85 L81.024,68.08 L83.496,68.08 L83.496,85 L81.024,85 Z M101.16,76.024 L101.16,83.992 C100.439996,84.3600018 99.5360054,84.6519989 98.448,84.868 C97.3599946,85.0840011 96.2560056,85.192 95.136,85.192 C93.4239914,85.192 91.9440062,84.8480034 90.696,84.16 C89.4479938,83.4719966 88.4960033,82.4800065 87.84,81.184 C87.1839967,79.888 86.856,78.336009 86.856,76.528 C86.856,74.7519911 87.1839967,73.2120065 87.84,71.908 C88.4960033,70.6039935 89.4359939,69.6080034 90.66,68.92 C91.8840061,68.2319966 93.3279917,67.888 94.992,67.888 C96.192006,67.888 97.295995,68.0639982 98.304,68.416 C99.312005,68.7680018 100.167996,69.2799966 100.872,69.952 L99.984,71.776 C99.183996,71.1199967 98.3920039,70.6480014 97.608,70.36 C96.8239961,70.0719986 95.9600047,69.928 95.016,69.928 C93.1919909,69.928 91.7960048,70.4919944 90.828,71.62 C89.8599952,72.7480056 89.376,74.3839893 89.376,76.528 C89.376,78.720011 89.871995,80.3799944 90.864,81.508 C91.856,82.6360056 93.3039905,83.2 95.208,83.2 C96.4560062,83.2 97.6879939,83.0160018 98.904,82.648 L98.904,77.896 L94.968,77.896 L94.968,76.024 L101.16,76.024 Z M104.904,85 L104.904,68.08 L115.896,68.08 L115.896,70.072 L107.328,70.072 L107.328,75.4 L115.416,75.4 L115.416,77.416 L107.328,77.416 L107.328,83.008 L115.896,83.008 L115.896,85 L104.904,85 Z M130.512,68.08 L132.84,68.08 L132.84,85 L130.944,85 L121.272,72.232 L121.272,85 L118.944,85 L118.944,68.08 L120.816,68.08 L130.512,80.872 L130.512,68.08 Z M140.808,85 L140.808,70.144 L135.096,70.144 L135.096,68.08 L149.04,68.08 L149.04,70.144 L143.304,70.144 L143.304,85 L140.808,85 Z M171.36,85 L168.624,85 L165.744,79.576 C165.423998,78.9999971 165.044002,78.5960012 164.604,78.364 C164.163998,78.1319988 163.584004,78.016 162.864,78.016 L160.08,78.016 L160.08,85 L157.632,85 L157.632,68.08 L164.832,68.08 C166.704009,68.08 168.132,68.4959958 169.116,69.328 C170.100005,70.1600042 170.592,71.375992 170.592,72.976 C170.592,74.2720065 170.228004,75.3359958 169.5,76.168 C168.771996,77.0000042 167.736007,77.5279989 166.392,77.752 C167.224004,78.0080013 167.911997,78.631995 168.456,79.624 L171.36,85 Z M164.544,76.024 C165.792006,76.024 166.715997,75.7800024 167.316,75.292 C167.916003,74.8039976 168.216,74.0480051 168.216,73.024 C168.216,71.9999949 167.920003,71.2520024 167.328,70.78 C166.735997,70.3079976 165.808006,70.072 164.544,70.072 L160.056,70.072 L160.056,76.024 L164.544,76.024 Z M181.344,85.192 C179.743992,85.192 178.356006,84.8400035 177.18,84.136 C176.003994,83.4319965 175.096003,82.4320065 174.456,81.136 C173.815997,79.8399935 173.496,78.3120088 173.496,76.552 C173.496,74.7759911 173.811997,73.2360065 174.444,71.932 C175.076003,70.6279935 175.983994,69.6280035 177.168,68.932 C178.352006,68.2359965 179.743992,67.888 181.344,67.888 C182.960008,67.888 184.359994,68.2359965 185.544,68.932 C186.728006,69.6280035 187.635997,70.6279935 188.268,71.932 C188.900003,73.2360065 189.216,74.7679912 189.216,76.528 C189.216,78.2880088 188.900003,79.8199935 188.268,81.124 C187.635997,82.4280065 186.728006,83.4319965 185.544,84.136 C184.359994,84.8400035 182.960008,85.192 181.344,85.192 Z M181.344,83.176 C183.040008,83.176 184.359995,82.6000058 185.304,81.448 C186.248005,80.2959942 186.72,78.6560106 186.72,76.528 C186.72,74.3999894 186.252005,72.7640057 185.316,71.62 C184.379995,70.4759943 183.056009,69.904 181.344,69.904 C179.663992,69.904 178.356005,70.4759943 177.42,71.62 C176.483995,72.7640057 176.016,74.3999894 176.016,76.528 C176.016,78.6560106 176.483995,80.2959942 177.42,81.448 C178.356005,82.6000058 179.663992,83.176 181.344,83.176 Z M192.576,85 L192.576,68.08 L195.048,68.08 L195.048,82.936 L203.256,82.936 L203.256,85 L192.576,85 Z M212.088,85.192 C210.487992,85.192 209.100006,84.8400035 207.924,84.136 C206.747994,83.4319965 205.840003,82.4320065 205.2,81.136 C204.559997,79.8399935 204.24,78.3120088 204.24,76.552 C204.24,74.7759911 204.555997,73.2360065 205.188,71.932 C205.820003,70.6279935 206.727994,69.6280035 207.912,68.932 C209.096006,68.2359965 210.487992,67.888 212.088,67.888 C213.704008,67.888 215.103994,68.2359965 216.288,68.932 C217.472006,69.6280035 218.379997,70.6279935 219.012,71.932 C219.644003,73.2360065 219.96,74.7679912 219.96,76.528 C219.96,78.2880088 219.644003,79.8199935 219.012,81.124 C218.379997,82.4280065 217.472006,83.4319965 216.288,84.136 C215.103994,84.8400035 213.704008,85.192 212.088,85.192 Z M212.088,83.176 C213.784008,83.176 215.103995,82.6000058 216.048,81.448 C216.992005,80.2959942 217.464,78.6560106 217.464,76.528 C217.464,74.3999894 216.996005,72.7640057 216.06,71.62 C215.123995,70.4759943 213.800009,69.904 212.088,69.904 C210.407992,69.904 209.100005,70.4759943 208.164,71.62 C207.227995,72.7640057 206.76,74.3999894 206.76,76.528 C206.76,78.6560106 207.227995,80.2959942 208.164,81.448 C209.100005,82.6000058 210.407992,83.176 212.088,83.176 Z M223.32,68.08 L229.248,68.08 C231.984014,68.08 234.103992,68.8159926 235.608,70.288 C237.112008,71.7600074 237.864,73.8399866 237.864,76.528 C237.864,79.2160134 237.112008,81.2999926 235.608,82.78 C234.103992,84.2600074 231.984014,85 229.248,85 L223.32,85 L223.32,68.08 Z M229.104,82.936 C233.264021,82.936 235.344,80.8000214 235.344,76.528 C235.344,72.2719787 233.264021,70.144 229.104,70.144 L225.792,70.144 L225.792,82.936 L229.104,82.936 Z M241.224,85 L241.224,68.08 L252.216,68.08 L252.216,70.072 L243.648,70.072 L243.648,75.4 L251.736,75.4 L251.736,77.416 L243.648,77.416 L243.648,83.008 L252.216,83.008 L252.216,85 L241.224,85 Z M262.368,76.384 L268.8,85 L265.896,85 L260.952,78.208 L256.008,85 L253.104,85 L259.56,76.36 L253.368,68.08 L256.272,68.08 L260.976,74.536 L265.656,68.08 L268.536,68.08 L262.368,76.384 Z" id="INTELLIGENTROLODEX" fill="#000022" fill-rule="nonzero" opacity="0.25"></path>
        </g>
    </g>
</svg>