<?xml version="1.0" encoding="UTF-8"?>
<svg width="28px" height="20px" viewBox="0 0 28 20" version="1.1" xmlns="http://www.w3.org/2000/svg" xmlns:xlink="http://www.w3.org/1999/xlink">
    <!-- Generator: Sketch 55.2 (78181) - https://sketchapp.com -->
    <title>Path</title>
    <desc>Created with Sketch.</desc>
    <defs>
        <path d="M3.17307692,0 L24.3269231,0 C26.0793651,0 27.5,1.49238417 27.5,3.33333333 L27.5,16.6666667 C27.5,18.5076158 26.0793651,20 24.3269231,20 L3.17307692,20 C1.42063493,20 0,18.5076158 0,16.6666667 L0,3.33333333 C0,1.49238417 1.42063493,0 3.17307692,0 Z" id="path-1"></path>
    </defs>
    <g id="Dexter-Version-2" stroke="none" stroke-width="1" fill="none" fill-rule="evenodd">
        <g id="Episode-Copy-13" transform="translate(-910.000000, -80.000000)">
            <g id="Group-7" transform="translate(343.000000, 64.000000)">
                <g id="Group-3">
                    <g id="Group-14" transform="translate(83.000000, 1.000000)">
                        <g id="Group-6" transform="translate(402.000000, 15.000000)">
                            <g id="Path" transform="translate(82.000000, 0.000000)">
                                <mask id="mask-2" fill="white">
                                    <use xlink:href="#path-1"></use>
                                </mask>
                                <use id="Mask" fill="#000022" fill-rule="nonzero" opacity="0.1" xlink:href="#path-1"></use>
                                <path d="M25.1885951,20 L3.28546892,20 C1.47095454,20 0,18.2555757 0,16.1037192 L0,0.518595831 C0,0.0940923911 0.119063354,-0.495439553 0.357190061,-1.25 C17.3915325,12.9166667 25.6686675,20 25.1885951,20 Z" id="Mask" fill="#000022" fill-rule="nonzero" opacity="0.05" mask="url(#mask-2)"></path>
                                <path d="M28.6251979,20 L5.72647508,20 C3.82948278,20 2.29166667,18.2555757 2.29166667,16.1037192 L2.29166667,0.518595831 C2.29166667,0.0940923911 2.41614199,-0.495439553 2.66509264,-1.25 C20.4737234,12.9166667 29.1270918,20 28.6251979,20 Z" id="Mask" fill="#000022" fill-rule="nonzero" opacity="0.05" mask="url(#mask-2)" transform="translate(15.468750, 9.375000) scale(-1, 1) translate(-15.468750, -9.375000) "></path>
                                <path d="M0.00838932868,0 L27.4955092,0 C27.5421995,1.15536349 27.2248182,2.02188611 26.5433654,2.59956785 C24.1411123,4.63600797 20.5377326,7.69066814 15.7332263,11.7635484 C14.5749022,12.7454839 12.9289963,12.7454839 11.7706722,11.7635484 C6.94865825,7.67582653 3.33214778,4.61003515 0.921140794,2.56617423 C0.248441839,1.99591329 -0.0558086494,1.14052188 0.00838932868,0 Z" fill="#ACACB7" fill-rule="nonzero" mask="url(#mask-2)"></path>
                            </g>
                        </g>
                    </g>
                </g>
            </g>
        </g>
    </g>
</svg>