<?xml version="1.0" encoding="UTF-8"?>
<svg width="28px" height="28px" viewBox="0 0 28 28" version="1.1" xmlns="http://www.w3.org/2000/svg" xmlns:xlink="http://www.w3.org/1999/xlink">
    <!-- Generator: Sketch 55.2 (78181) - https://sketchapp.com -->
    <title>notifications_inactive</title>
    <desc>Created with Sketch.</desc>
    <g id="Dexter-Version-2" stroke="none" stroke-width="1" fill="none" fill-rule="evenodd">
        <g id="notifications_inactive">
            <path d="M7.6916556,3.36 L16.9483444,3.36 C19.6229006,3.36 20.5927593,3.63847683 21.5705371,4.16139811 C22.5483149,4.68431939 23.3156806,5.45168511 23.8386019,6.42946289 C24.3615232,7.40724067 24.64,8.37709938 24.64,11.0516556 L24.64,20.3083444 C24.64,22.9829006 24.3615232,23.9527593 23.8386019,24.9305371 C23.3156806,25.9083149 22.5483149,26.6756806 21.5705371,27.1986019 C20.5927593,27.7215232 19.6229006,28 16.9483444,28 L7.6916556,28 C5.01709938,28 4.04724067,27.7215232 3.06946289,27.1986019 C2.09168511,26.6756806 1.32431939,25.9083149 0.801398111,24.9305371 C0.278476833,23.9527593 1.2037061e-16,22.9829006 -2.07168062e-16,20.3083444 L2.07168062e-16,11.0516556 C-1.2037061e-16,8.37709938 0.278476833,7.40724067 0.801398111,6.42946289 C1.32431939,5.45168511 2.09168511,4.68431939 3.06946289,4.16139811 C4.04724067,3.63847683 5.01709938,3.36 7.6916556,3.36 Z" id="Rectangle" fill="#000022" opacity="0.1"></path>
            <circle id="Oval" fill="#BBBBC4" cx="21.28" cy="6.72" r="6.72"></circle>
        </g>
    </g>
</svg>