<?xml version="1.0" encoding="UTF-8"?>
<svg width="20px" height="20px" viewBox="0 0 20 20" version="1.1" xmlns="http://www.w3.org/2000/svg" xmlns:xlink="http://www.w3.org/1999/xlink">
    <!-- Generator: Sketch 55.2 (78181) - https://sketchapp.com -->
    <title>notifications_u</title>
    <desc>Created with Sketch.</desc>
    <g id="Dexter-Version-2" stroke="none" stroke-width="1" fill="none" fill-rule="evenodd">
        <g id="notifications_u">
            <path d="M7.45031053,2.4 L10.1496895,2.4 C12.5346316,2.4 13.5527593,2.67847683 14.5305371,3.20139811 C15.5083149,3.72431939 16.2756806,4.49168511 16.7986019,5.46946289 C17.3215232,6.44724067 17.6,7.46536839 17.6,9.85031053 L17.6,12.5496895 C17.6,14.9346316 17.3215232,15.9527593 16.7986019,16.9305371 C16.2756806,17.9083149 15.5083149,18.6756806 14.5305371,19.1986019 C13.5527593,19.7215232 12.5346316,20 10.1496895,20 L7.45031053,20 C5.06536839,20 4.04724067,19.7215232 3.06946289,19.1986019 C2.09168511,18.6756806 1.32431939,17.9083149 0.801398111,16.9305371 C0.278476833,15.9527593 1.14459361e-16,14.9346316 -1.77611815e-16,12.5496895 L1.77611815e-16,9.85031053 C-1.14459361e-16,7.46536839 0.278476833,6.44724067 0.801398111,5.46946289 C1.32431939,4.49168511 2.09168511,3.72431939 3.06946289,3.20139811 C4.04724067,2.67847683 5.06536839,2.4 7.45031053,2.4 Z" id="Rectangle" fill="#E5E7ED"></path>
            <circle id="Oval" fill="#ABADBA" cx="15.2" cy="4.8" r="4.8"></circle>
        </g>
    </g>
</svg>