<?xml version="1.0" encoding="UTF-8"?>
<svg width="8px" height="8px" viewBox="0 0 8 8" version="1.1" xmlns="http://www.w3.org/2000/svg" xmlns:xlink="http://www.w3.org/1999/xlink">
    <!-- Generator: Sketch 55.2 (78181) - https://sketchapp.com -->
    <title>Combined Shape</title>
    <desc>Created with Sketch.</desc>
    <g id="Dexter-Version-2" stroke="none" stroke-width="1" fill="none" fill-rule="evenodd" fill-opacity="0.25">
        <g id="Episode-Copy-5" transform="translate(-764.000000, -405.000000)" fill="#40405A">
            <g id="Group-15" transform="translate(519.000000, 348.000000)">
                <g id="Group-10" transform="translate(245.000000, 54.000000)">
                    <path d="M4.33333333,6.66666667 L4.33333333,5 C4.33333333,4.81590508 4.18409492,4.66666667 4,4.66666667 C3.81590508,4.66666667 3.66666667,4.81590508 3.66666667,5 L3.66666667,6.66666667 L2,6.66666667 C1.81590508,6.66666667 1.66666667,6.81590508 1.66666667,7 C1.66666667,7.18409492 1.81590508,7.33333333 2,7.33333333 L3.66666667,7.33333333 L3.66666667,9 C3.66666667,9.18409492 3.81590508,9.33333333 4,9.33333333 C4.18409492,9.33333333 4.33333333,9.18409492 4.33333333,9 L4.33333333,7.33333333 L6,7.33333333 C6.18409492,7.33333333 6.33333333,7.18409492 6.33333333,7 C6.33333333,6.81590508 6.18409492,6.66666667 6,6.66666667 L4.33333333,6.66666667 Z M4,11 C1.790861,11 0,9.209139 0,7 C0,4.790861 1.790861,3 4,3 C6.209139,3 8,4.790861 8,7 C8,9.209139 6.209139,11 4,11 Z" id="Combined-Shape"></path>
                </g>
            </g>
        </g>
    </g>
</svg>