<?xml version="1.0" encoding="UTF-8"?>
<svg width="16px" height="15px" viewBox="0 0 16 15" version="1.1" xmlns="http://www.w3.org/2000/svg" xmlns:xlink="http://www.w3.org/1999/xlink">
    <!-- Generator: Sketch 55.2 (78181) - https://sketchapp.com -->
    <title>Group 7</title>
    <desc>Created with Sketch.</desc>
    <g id="Dexter-Version-2" stroke="none" stroke-width="1" fill="none" fill-rule="evenodd">
        <g id="Episode-Copy-7" transform="translate(-134.000000, -30.000000)" fill="#000022">
            <g id="Group-3" transform="translate(28.000000, 20.000000)">
                <g id="Group-7-Copy">
                    <g id="Group-Copy">
                        <g id="Group-2" transform="translate(106.000000, 7.000000)">
                            <g id="Group-4" transform="translate(0.000000, 3.000000)">
                                <g id="Group-7" transform="translate(0.320000, 0.312500)">
                                    <path d="M10.6534013,9.14954055 L14.7588721,13.1603583 C14.9973922,13.3820079 15.0941506,13.7124971 15.0116578,14.0237768 C14.929165,14.3350565 14.6803831,14.5782156 14.3617034,14.6590413 C14.0430237,14.7398671 13.7045201,14.6456594 13.4773468,14.4129193 L9.37196604,10.4016645 C9.86023593,10.0489693 10.2925178,9.62657827 10.6534013,9.14954055 Z" id="Combined-Shape" opacity="0.1"></path>
                                    <path d="M5.44,10.625 C8.44442904,10.625 10.88,8.24651273 10.88,5.3125 C10.88,2.37848727 8.44442904,0 5.44,0 C2.43557096,0 -2.66453526e-15,2.37848727 -2.66453526e-15,5.3125 C-2.66453526e-15,8.24651273 2.43557096,10.625 5.44,10.625 Z M5.44,9.44444444 C3.10322186,9.44444444 1.20888889,7.5945099 1.20888889,5.3125 C1.20888889,3.0304901 3.10322186,1.18055556 5.44,1.18055556 C7.77677814,1.18055556 9.67111111,3.0304901 9.67111111,5.3125 C9.67111111,7.5945099 7.77677814,9.44444444 5.44,9.44444444 Z" id="Oval" fill-rule="nonzero" opacity="0.25"></path>
                                </g>
                            </g>
                        </g>
                    </g>
                </g>
            </g>
        </g>
    </g>
</svg>