<?xml version="1.0" encoding="UTF-8"?>
<svg width="22px" height="20px" viewBox="0 0 22 20" version="1.1" xmlns="http://www.w3.org/2000/svg" xmlns:xlink="http://www.w3.org/1999/xlink">
    <!-- Generator: Sketch 55.2 (78181) - https://sketchapp.com -->
    <title>Shape</title>
    <desc>Created with Sketch.</desc>
    <defs>
        <linearGradient x1="100%" y1="94.2906574%" x2="0%" y2="5.70934256%" id="linearGradient-1">
            <stop stop-color="#04BEFE" stop-opacity="0.997104458" offset="0%"></stop>
            <stop stop-color="#4481EB" offset="100%"></stop>
        </linearGradient>
    </defs>
    <g id="Dexter-Version-2" stroke="none" stroke-width="1" fill="none" fill-rule="evenodd">
        <g id="Episode-Copy-13" transform="translate(-869.000000, -80.000000)" fill="url(#linearGradient-1)" fill-rule="nonzero">
            <g id="Group-7" transform="translate(343.000000, 64.000000)">
                <g id="Group-3">
                    <g id="Group-14" transform="translate(83.000000, 1.000000)">
                        <g id="Group-6" transform="translate(402.000000, 15.000000)">
                            <path d="M60.8511009,6.41303706 L55.3365144,5.77906447 L53.0519,0.865776897 C52.5256508,-0.282505958 50.7330163,-0.307864861 50.2158269,0.905400184 L47.9312125,5.81868776 L42.416626,6.45266035 C41.0572804,6.62383295 40.4924292,8.33952127 41.5500481,9.22629043 L45.6072082,12.8716328 L44.5042909,18.1019067 C44.2612551,19.32587 45.4732825,20.4670207 46.7889053,19.805708 L51.6338634,17.1113245 L56.4788216,19.7660848 C57.7696287,20.4143217 59.0840698,19.2711899 58.763436,18.0618872 L57.6605187,12.8320095 L61.7176788,9.18666715 C62.727242,8.25591614 62.2246268,6.58539836 60.8511009,6.41303706 Z" id="Shape"></path>
                        </g>
                    </g>
                </g>
            </g>
        </g>
    </g>
</svg>