<?xml version="1.0" encoding="UTF-8"?>
<svg width="22px" height="20px" viewBox="0 0 22 20" version="1.1" xmlns="http://www.w3.org/2000/svg" xmlns:xlink="http://www.w3.org/1999/xlink">
    <!-- Generator: Sketch 55.2 (78181) - https://sketchapp.com -->
    <title>Shape Copy</title>
    <desc>Created with Sketch.</desc>
    <g id="Dexter-Version-2" stroke="none" stroke-width="1" fill="none" fill-rule="evenodd" fill-opacity="0.25">
        <g id="Episode-Copy-13" transform="translate(-828.000000, -80.000000)" fill="#000022" fill-rule="nonzero">
            <g id="Group-7" transform="translate(343.000000, 64.000000)">
                <g id="Group-3">
                    <g id="Group-14" transform="translate(83.000000, 1.000000)">
                        <g id="Group-6" transform="translate(402.000000, 15.000000)">
                            <path d="M19.8511009,6.41303706 L14.3365144,5.77906447 L12.0519,0.865776897 C11.5256508,-0.282505958 9.73301632,-0.307864861 9.21582689,0.905400184 L6.93121247,5.81868776 L1.41662595,6.45266035 C0.0572803765,6.62383295 -0.507570843,8.33952127 0.550048072,9.22629043 L4.60720815,12.8716328 L3.50429085,18.1019067 C3.26125514,19.32587 4.47328248,20.4670207 5.78890527,19.805708 L10.6338634,17.1113245 L15.4788216,19.7660848 C16.7696287,20.4143217 18.0840698,19.2711899 17.763436,18.0618872 L16.6605187,12.8320095 L20.7176788,9.18666715 C21.727242,8.25591614 21.2246268,6.58539836 19.8511009,6.41303706 Z" id="Shape-Copy"></path>
                        </g>
                    </g>
                </g>
            </g>
        </g>
    </g>
</svg>