<?xml version="1.0" encoding="UTF-8"?>
<svg width="20px" height="16px" viewBox="0 0 20 16" version="1.1" xmlns="http://www.w3.org/2000/svg" xmlns:xlink="http://www.w3.org/1999/xlink">
    <!-- Generator: Sketch 55.2 (78181) - https://sketchapp.com -->
    <title>twitter</title>
    <desc>Created with Sketch.</desc>
    <g id="Dexter-Version-2" stroke="none" stroke-width="1" fill="none" fill-rule="evenodd" opacity="0.25">
        <g id="Episode-Copy-5" transform="translate(-1026.000000, -164.000000)" fill="#000022" fill-rule="nonzero">
            <g id="Group-3" transform="translate(112.000000, 20.000000)">
                <g id="Group-14" transform="translate(487.000000, 139.000000)">
                    <g id="Group-6" transform="translate(341.000000, 5.000000)">
                        <path d="M92.125766,16 C99.4765452,16 103.496118,9.84491208 103.496118,4.50764174 C103.496118,4.33281618 103.492595,4.15877944 103.484836,3.98552953 C104.265143,3.41538106 104.943383,2.70387604 105.478261,1.89393337 C104.762233,2.21562658 103.991666,2.43218914 103.18331,2.5298393 C104.008417,2.02977682 104.641856,1.23873526 104.940656,0.29570536 C104.16853,0.758360708 103.313426,1.09462316 102.403003,1.27614106 C101.67373,0.491005009 100.635528,0 99.4859104,0 C97.2790017,0 95.4893211,1.80888439 95.4893211,4.03868581 C95.4893211,4.35565341 95.524382,4.66395994 95.5929468,4.95966464 C92.2714817,4.79074659 89.3263385,3.18346243 87.3555095,0.739460934 C87.0122987,1.33638475 86.8143983,2.02977682 86.8143983,2.7696315 C86.8143983,4.17098555 87.5199073,5.40814582 88.5927802,6.13185694 C87.9371362,6.11138219 87.3212272,5.92946922 86.7828423,5.62667644 C86.782254,5.64362335 86.782254,5.66014545 86.782254,5.67825774 C86.782254,7.63440353 88.1597707,9.26767553 89.9884078,9.63779942 C89.6525993,9.73033088 89.2992598,9.77994279 88.9346236,9.77994279 C88.677508,9.77994279 88.427015,9.7543652 88.1835348,9.70709991 C88.6923115,11.3120216 90.167609,12.4798814 91.9167748,12.5125636 C90.5489972,13.5961605 88.8259336,14.2415163 86.9532757,14.2415163 C86.6311014,14.2415163 86.3128241,14.2229944 86,14.1856032 C87.768644,15.3314145 89.8688106,16 92.1259726,16" id="twitter"></path>
                    </g>
                </g>
            </g>
        </g>
    </g>
</svg>