<?xml version="1.0" encoding="UTF-8"?>
<svg width="25px" height="20px" viewBox="0 0 25 20" version="1.1" xmlns="http://www.w3.org/2000/svg" xmlns:xlink="http://www.w3.org/1999/xlink">
    <!-- Generator: Sketch 55.2 (78181) - https://sketchapp.com -->
    <title>twitter</title>
    <desc>Created with Sketch.</desc>
    <g id="Dexter-Version-2" stroke="none" stroke-width="1" fill="none" fill-rule="evenodd" opacity="0.25">
        <g id="Episode-Copy-13" transform="translate(-996.000000, -80.000000)" fill="#000022" fill-rule="nonzero">
            <g id="Group-7" transform="translate(343.000000, 64.000000)">
                <g id="Group-3">
                    <g id="Group-14" transform="translate(83.000000, 1.000000)">
                        <g id="Group-6" transform="translate(402.000000, 15.000000)">
                            <path d="M175.657208,20 C184.845681,20 189.870148,12.3061401 189.870148,5.63455217 C189.870148,5.41602023 189.865744,5.1984743 189.856046,4.98191191 C190.831428,4.26922632 191.679228,3.37984505 192.347826,2.36741672 C191.452791,2.76953323 190.489582,3.04023643 189.479137,3.16229912 C190.510522,2.53722103 191.30232,1.54841907 191.67582,0.3696317 C190.710662,0.947950885 189.641782,1.36827894 188.503754,1.59517632 C187.592162,0.613756262 186.29441,0 184.857388,0 C182.098752,0 179.861651,2.26110549 179.861651,5.04835726 C179.861651,5.44456676 179.905477,5.82994993 179.991183,6.1995808 C175.839352,5.98843324 172.157923,3.97932804 169.694387,0.924326167 C169.265373,1.67048094 169.017998,2.53722103 169.017998,3.46203938 C169.017998,5.21373193 169.899884,6.76018228 171.240975,7.66482118 C170.42142,7.63922773 169.651534,7.41183652 168.978553,7.03334555 C168.977817,7.05452918 168.977817,7.07518182 168.977817,7.09782217 C168.977817,9.54300441 170.699713,11.5845944 172.98551,12.0472493 C172.565749,12.1629136 172.124075,12.2249285 171.66828,12.2249285 C171.346885,12.2249285 171.033769,12.1929565 170.729419,12.1338749 C171.365389,14.140027 173.209511,15.5998517 175.395969,15.6407044 C173.686247,16.9952007 171.532417,17.8018954 169.191595,17.8018954 C168.788877,17.8018954 168.39103,17.7787431 168,17.732004 C170.210805,19.1642682 172.836013,20 175.657466,20" id="twitter"></path>
                        </g>
                    </g>
                </g>
            </g>
        </g>
    </g>
</svg>