<?xml version="1.0" encoding="UTF-8"?>
<svg width="44px" height="44px" viewBox="0 0 44 44" version="1.1" xmlns="http://www.w3.org/2000/svg" xmlns:xlink="http://www.w3.org/1999/xlink">
    <!-- Generator: Sketch 55.2 (78181) - https://sketchapp.com -->
    <title>Group 7</title>
    <desc>Created with Sketch.</desc>
    <defs>
        <circle id="path-1" cx="12" cy="12" r="12"></circle>
        <filter x="-66.7%" y="-58.3%" width="233.3%" height="233.3%" filterUnits="objectBoundingBox" id="filter-2">
            <feOffset dx="0" dy="2" in="SourceAlpha" result="shadowOffsetOuter1"></feOffset>
            <feGaussianBlur stdDeviation="5" in="shadowOffsetOuter1" result="shadowBlurOuter1"></feGaussianBlur>
            <feColorMatrix values="0 0 0 0 0   0 0 0 0 0   0 0 0 0 0.133333333  0 0 0 0.1 0" type="matrix" in="shadowBlurOuter1"></feColorMatrix>
        </filter>
    </defs>
    <g id="Dexter-Version-2" stroke="none" stroke-width="1" fill="none" fill-rule="evenodd">
        <g id="Episode-Copy-5" transform="translate(-1054.000000, -94.000000)">
            <g id="Group-3" transform="translate(112.000000, 20.000000)">
                <g id="Group-7" transform="translate(952.000000, 82.000000)">
                    <g id="Oval">
                        <use fill="black" fill-opacity="1" filter="url(#filter-2)" xlink:href="#path-1"></use>
                        <use fill="#40405A" fill-rule="evenodd" xlink:href="#path-1"></use>
                    </g>
                    <path d="M11.6428571,5.14285714 L12.3571429,5.14285714 C12.6332852,5.14285714 12.8571429,5.36671477 12.8571429,5.64285714 L12.8571429,18.3571429 C12.8571429,18.6332852 12.6332852,18.8571429 12.3571429,18.8571429 L11.6428571,18.8571429 C11.3667148,18.8571429 11.1428571,18.6332852 11.1428571,18.3571429 L11.1428571,5.64285714 C11.1428571,5.36671477 11.3667148,5.14285714 11.6428571,5.14285714 Z" id="Rectangle" fill="#FFFFFF" transform="translate(12.000000, 12.000000) rotate(45.000000) translate(-12.000000, -12.000000) "></path>
                    <path d="M11.6428571,5.14285714 L12.3571429,5.14285714 C12.6332852,5.14285714 12.8571429,5.36671477 12.8571429,5.64285714 L12.8571429,18.3571429 C12.8571429,18.6332852 12.6332852,18.8571429 12.3571429,18.8571429 L11.6428571,18.8571429 C11.3667148,18.8571429 11.1428571,18.6332852 11.1428571,18.3571429 L11.1428571,5.64285714 C11.1428571,5.36671477 11.3667148,5.14285714 11.6428571,5.14285714 Z" id="Rectangle" fill="#FFFFFF" transform="translate(12.000000, 12.000000) rotate(135.000000) translate(-12.000000, -12.000000) "></path>
                </g>
            </g>
        </g>
    </g>
</svg>