<?xml version="1.0" encoding="UTF-8"?>
<svg width="80px" height="117px" viewBox="0 0 80 117" version="1.1" xmlns="http://www.w3.org/2000/svg" xmlns:xlink="http://www.w3.org/1999/xlink">
    <!-- Generator: Sketch 55.2 (78181) - https://sketchapp.com -->
    <title>Group 3</title>
    <desc>Created with Sketch.</desc>
    <defs>
        <linearGradient x1="50%" y1="100%" x2="50%" y2="0%" id="linearGradient-1">
            <stop stop-color="#04BEFE" offset="0%"></stop>
            <stop stop-color="#4481EB" offset="100%"></stop>
        </linearGradient>
        <path d="M79.9753638,41.4171742 C79.7970855,46.5370219 78.6566068,51.4122746 76.7291762,55.8676839 C74.6557656,60.0229562 68.883407,59.6753278 65.9859291,59.4186769 C56.2329904,58.1089744 48.144412,51.7251715 43.8952406,43.2635455 C54.9698065,50.4727072 69.5197236,49.6107743 79.9753638,41.4171742 Z M79.7565456,35.5616527 C79.9432363,39.7574902 76.8332777,41.3187622 73.5403274,42.8925829 C65.0678046,46.9419096 55.0429527,46.5578969 46.6940652,42.1766456 C44.1039949,40.8174527 42.405657,39.2608887 41.451439,36.5241056 C41.4310234,36.430945 41.4125304,36.3382397 41.3960344,36.2459386 L41.4010292,36.2268344 C41.3983418,36.2264565 41.3955209,36.2265895 41.3927277,36.22729 C41.1962337,35.110243 41.2932818,34.0519481 41.8154157,32.9613039 C42.0535958,32.5497796 42.3009861,32.1483628 42.5572013,31.7579736 C42.5997206,31.7014882 42.6434295,31.6448383 42.6883446,31.5880125 C42.6890399,31.5873055 42.6897358,31.5865959 42.6904325,31.5858838 C42.7059349,31.5700371 42.7215273,31.5528096 42.7372176,31.5341185 C42.8538968,31.3951237 42.9711027,31.2642224 43.0893514,31.1414877 C43.1334312,31.1443968 43.1345574,31.1172531 43.0981978,31.1323231 C44.4083605,29.7775689 45.848009,29.4246874 48.1183017,30.1730204 C48.1571662,30.1858309 48.1954526,30.1978909 48.2331593,30.2092132 C48.2835227,30.2276307 48.3338486,30.2461814 48.3841364,30.2648653 C51.9575033,31.4809207 52.5341981,29.0530149 48.9824199,27.8369598 C36.837605,23.2356466 22.6398342,26.8157748 13.8596284,37.2796166 C7.80088117,44.5001503 5.46787141,53.5832429 6.67525567,62.1315467 C2.45768786,55.7935935 0,48.1838086 0,40 C0,17.90861 17.90861,0 40,0 C60.5912196,0 77.5484546,15.5589374 79.7565456,35.5616527 Z M38.8624674,32.696221 C38.7320148,32.928618 38.6715139,33.1743752 38.6935404,33.4261395 C38.7006661,33.5073523 38.7080979,33.5884647 38.7158348,33.6694758 C32.1675206,46.2682176 35.1523929,62.3261075 46.7114076,72.0252725 C49.2802477,74.1807853 52.0848345,75.8647263 55.017215,77.0854416 C50.3803889,78.9649042 45.3110742,80 40,80 C39.3699108,80 38.7432242,79.9854313 38.1202588,79.9566125 C29.9298516,79.039187 27.8886378,77.4873076 24.9774886,72.2825106 C23.152216,69.019135 21.9526988,65.3553687 21.6063822,61.4083085 C20.4853724,48.63187 27.8808217,37.7965308 38.8624674,32.696221 Z M73.705774,61.5480111 C71.1267412,65.573811 67.8462056,69.1070902 64.036641,71.9753747 C56.8277183,77.0542509 54.016722,75.3916858 48.0721525,70.4035998 C41.3551433,64.7673598 37.9553884,57.1611548 37.8094009,48.8783621 C37.7445305,45.1978589 38.3454473,41.5198326 39.4775554,38.1657499 C43.0741518,52.8026648 56.8983344,63.042039 72.3789492,61.6920272 C72.8243017,61.6531625 73.2666337,61.6050891 73.705774,61.5480111 Z M42.005827,28.6374582 C41.8930311,28.7774858 41.7816819,28.9182357 41.6717778,29.0596898 C27.7404998,33.1311554 18.1546309,46.5809249 19.4717207,61.5940323 C19.9863767,67.4589597 22.0981171,72.8008439 25.3407913,77.2285352 C20.990261,75.5140825 17.0125901,73.0590725 13.5630854,70.0188123 C10.4734562,67.0940538 9.62601867,64.8322399 9.15997204,61.3413898 C8.11943306,53.5473939 9.982977,45.193009 15.4813011,38.6403615 C22.3699318,30.4308112 32.4169998,27.2538167 42.005827,28.6374582 Z" id="path-2"></path>
    </defs>
    <g id="Page-1" stroke="none" stroke-width="1" fill="none" fill-rule="evenodd">
        <g id="Splash" transform="translate(-148.000000, -345.000000)">
            <g id="Group-3" transform="translate(148.000000, 345.000000)">
                <g id="Group-2">
                    <mask id="mask-3" fill="white">
                        <use xlink:href="#path-2"></use>
                    </mask>
                    <use id="Combined-Shape" fill="url(#linearGradient-1)" xlink:href="#path-2"></use>
                </g>
                <path d="M30.024,105 L31.992,105 L28.008,116.28 L26.328,116.28 L23.496,108.168 L20.648,116.28 L18.968,116.28 L15,105 L17.08,105 L19.88,113.4 L22.824,105 L24.28,105 L27.144,113.448 L30.024,105 Z M42.216,116.28 L41.08,113.64 L35.592,113.64 L34.456,116.28 L32.376,116.28 L37.48,105 L39.16,105 L44.264,116.28 L42.216,116.28 Z M36.264,112.04 L40.392,112.04 L38.328,107.24 L36.264,112.04 Z M53.736,105 L55.832,105 L50.808,116.28 L49.128,116.28 L44.104,105 L46.232,105 L49.976,113.72 L53.736,105 Z M56.888,116.28 L56.888,105 L64.44,105 L64.44,106.632 L58.904,106.632 L58.904,109.736 L64.12,109.736 L64.12,111.352 L58.904,111.352 L58.904,114.648 L64.44,114.648 L64.44,116.28 L56.888,116.28 Z" id="WAVE" fill="#000000" fill-rule="nonzero" opacity="0.749883743"></path>
            </g>
        </g>
    </g>
</svg>